<svg width="105" height="27" viewBox="0 0 105 27" fill="none" xmlns="http://www.w3.org/2000/svg">
<path d="M104.854 26.6322H92.8076C92.7106 26.6322 92.6621 26.5709 92.6621 26.4482L92.6985 0.570174C92.6985 0.472081 92.747 0.423035 92.844 0.423035H104.818C104.915 0.423035 104.964 0.484343 104.964 0.606958V4.81881C104.964 4.9169 104.915 4.96595 104.818 4.96595H97.1751V10.8515H104.818C104.915 10.8515 104.964 10.9006 104.964 10.9986L105 15.2657C105 15.3638 104.951 15.4128 104.854 15.4128H97.1751V21.9973H104.854C104.951 21.9973 105 22.0586 105 22.1812V26.485C105 26.5831 104.951 26.6322 104.854 26.6322Z" fill="white"/>
<path d="M90.0416 26.6322H77.9948C77.8977 26.6322 77.8492 26.5709 77.8492 26.4482L77.8856 0.606958C77.8856 0.484343 77.9463 0.423035 78.0676 0.423035H82.2166C82.3379 0.423035 82.3986 0.484343 82.3986 0.606958L82.3622 21.9973H90.0416C90.1629 21.9973 90.2236 22.0586 90.2236 22.1812V26.4482C90.2236 26.5709 90.1629 26.6322 90.0416 26.6322Z" fill="white"/>
<path d="M67.8224 27C66.4757 27 65.2444 26.6567 64.1283 25.97C63.0243 25.2834 62.1447 24.3638 61.4896 23.2112C60.8466 22.0463 60.5251 20.7527 60.5251 19.3304L60.5615 7.57766C60.5615 6.17984 60.877 4.91689 61.5078 3.78883C62.1386 2.6485 63.0061 1.73501 64.1101 1.04837C65.2262 0.349455 66.4636 0 67.8224 0C69.2054 0 70.4367 0.337193 71.5165 1.01158C72.6083 1.68597 73.4757 2.59946 74.1187 3.75204C74.7738 4.89237 75.1014 6.16757 75.1014 7.57766V9.30654C75.1014 9.40463 75.0529 9.45368 74.9558 9.45368H70.7704C70.6733 9.45368 70.6248 9.40463 70.6248 9.30654V7.57766C70.6248 6.74387 70.3579 6.02657 69.8241 5.42575C69.2903 4.82493 68.6231 4.52452 67.8224 4.52452C66.9367 4.52452 66.2574 4.83106 65.7842 5.44414C65.3111 6.05722 65.0745 6.76839 65.0745 7.57766V19.3304C65.0745 20.25 65.3414 21.0041 65.8752 21.5926C66.409 22.1689 67.0581 22.4571 67.8224 22.4571C68.6231 22.4571 69.2903 22.1383 69.8241 21.5007C70.3579 20.8508 70.6248 20.1274 70.6248 19.3304V17.5831C70.6248 17.485 70.6733 17.436 70.7704 17.436H74.9922C75.0893 17.436 75.1378 17.485 75.1378 17.5831V19.3304C75.1378 20.7405 74.8102 22.0279 74.1551 23.1928C73.4879 24.3454 72.6083 25.2711 71.5165 25.97C70.4246 26.6567 69.1932 27 67.8224 27Z" fill="white"/>
<path d="M43.8016 26.4482L48.4237 0.570174C48.448 0.472081 48.5087 0.423035 48.6057 0.423035H54.0104C54.1075 0.423035 54.1681 0.472081 54.1924 0.570174L58.6326 26.4482C58.6447 26.5709 58.5962 26.6322 58.487 26.6322H54.3562C54.2348 26.6322 54.1681 26.5709 54.156 26.4482L53.7556 23.6894H48.6785L48.2782 26.4482C48.266 26.5709 48.2054 26.6322 48.0962 26.6322H43.9471C43.8501 26.6322 43.8016 26.5709 43.8016 26.4482ZM51.4809 9.08584L51.2626 7.68802L51.0988 9.08584L49.4246 19.6615H53.0095L51.4809 9.08584Z" fill="white"/>
<path d="M32.2097 26.6322H27.9879C27.8908 26.6322 27.8423 26.5709 27.8423 26.4482L27.9151 0.570174C27.9151 0.472081 27.9636 0.423035 28.0607 0.423035H35.5945C36.9411 0.423035 38.1785 0.754097 39.3068 1.41622C40.435 2.07835 41.3328 2.96731 42 4.08312C42.6794 5.19892 43.0191 6.46186 43.0191 7.87194C43.0191 8.79156 42.8795 9.62535 42.6005 10.3733C42.3215 11.1213 41.9939 11.7527 41.6178 12.2677C41.2539 12.7827 40.9203 13.1628 40.617 13.408C41.9636 14.9162 42.6369 16.688 42.6369 18.7234L42.6733 26.4482C42.6733 26.5709 42.6126 26.6322 42.4913 26.6322H38.2695C38.1724 26.6322 38.1239 26.5954 38.1239 26.5218V18.7234C38.1239 17.8161 37.8085 17.0313 37.1776 16.3692C36.5468 15.7071 35.7704 15.376 34.8484 15.376H32.3917L32.3553 26.4482C32.3553 26.5709 32.3068 26.6322 32.2097 26.6322ZM35.5945 4.92917H32.3917V10.8515H35.5945C36.3588 10.8515 37.0381 10.5634 37.6326 9.98707C38.2392 9.41077 38.5425 8.70573 38.5425 7.87194C38.5425 7.07494 38.2513 6.38829 37.669 5.812C37.0867 5.22344 36.3951 4.92917 35.5945 4.92917Z" fill="white"/>
<path d="M24.4211 26.6322H20.1993C20.078 26.6322 20.0173 26.5709 20.0173 26.4482L20.0537 0.570174C20.0537 0.472081 20.1023 0.423035 20.1993 0.423035H24.3848C24.4818 0.423035 24.5303 0.472081 24.5303 0.570174L24.5667 26.4482C24.5667 26.5709 24.5182 26.6322 24.4211 26.6322Z" fill="white"/>
<path d="M4.36742 26.6322H0.145581C0.0485269 26.6322 0 26.5709 0 26.4482L0.0727903 0.570181C0.0727903 0.472089 0.121317 0.423042 0.218371 0.423042H4.76777C4.86482 0.423042 4.94974 0.472089 5.02253 0.570181L8.42548 5.53612L11.8102 0.570181C11.883 0.472089 11.974 0.423042 12.0832 0.423042H16.6508C16.76 0.423042 16.8146 0.472089 16.8146 0.570181L16.8874 26.4482C16.8874 26.5709 16.8388 26.6322 16.7418 26.6322H12.5199C12.4229 26.6322 12.3744 26.5709 12.3744 26.4482L12.338 7.22822L8.42548 12.9666L4.54939 7.22822L4.513 26.4482C4.513 26.5709 4.46447 26.6322 4.36742 26.6322Z" fill="white"/>
</svg>
