<svg width="38" height="38" viewBox="0 0 38 38" fill="none" xmlns="http://www.w3.org/2000/svg">
<path fill-rule="evenodd" clip-rule="evenodd" d="M8 0C3.58172 0 0 3.58172 0 8V15.1798C3.41045 11.003 8.63681 8.22794 16.6511 8.60288L16.6295 8.63099C18.6427 8.59817 20.7031 9.38209 22.7175 11.2722L24.3157 8.27568C24.4277 8.06559 24.7422 8.11625 24.7826 8.3509L26.0121 15.4896L27.4251 15.334L28.5894 17.8189L26.5904 18.8477L28.4202 29.4721C28.4202 30.2001 27.2068 32.8694 25.1442 32.1414L21.8682 27.0455C18.2282 27.0455 16.2869 24.9828 16.8936 21.5855C15.3944 21.5855 16.819 32.3203 20.3489 38H30C34.4183 38 38 34.4183 38 30V8C38 3.58172 34.4183 0 30 0H8ZM23.8445 20.8684L23.833 20.8766L23.8444 20.8686C24.4956 20.4041 24.5555 19.3713 23.9783 18.5618C23.401 17.7525 22.4053 17.4728 21.754 17.9371L23.8445 20.8684ZM32.3617 14.7901C32.9131 14.7293 33.1383 15.4779 32.645 15.7317L31.5785 16.2806L30.9528 14.9453L32.3617 14.7901ZM30.1745 15.031L28.4543 15.2206L29.4614 17.3701L30.919 16.62L30.1745 15.031ZM30 8.6893C30.7154 8.32173 31.0278 8.03834 31.356 7.3333C31.6312 8.06556 31.948 8.34654 32.712 8.6893C31.9786 9.03839 31.6544 9.31112 31.356 10.0453C31.0113 9.25076 30.6907 8.98782 30 8.6893ZM33.5664 10.4337C33.3431 10.9132 33.1306 11.106 32.644 11.356C33.1138 11.5591 33.3319 11.7379 33.5664 12.2783C33.7693 11.779 33.9898 11.5934 34.4887 11.356C33.969 11.1229 33.7535 10.9317 33.5664 10.4337Z" fill="#262626"/>
</svg>
