<svg width="151" height="38" viewBox="0 0 151 38" fill="none" xmlns="http://www.w3.org/2000/svg">
<path fill-rule="evenodd" clip-rule="evenodd" d="M8 0C3.58172 0 0 3.58172 0 8V15.1798C3.41045 11.003 8.63681 8.22794 16.6511 8.60288L16.6295 8.63099C18.6427 8.59817 20.7031 9.38209 22.7175 11.2722L24.3157 8.27568C24.4277 8.06559 24.7422 8.11625 24.7826 8.3509L26.0121 15.4896L27.4251 15.334L28.5894 17.8189L26.5904 18.8477L28.4202 29.4721C28.4202 30.2001 27.2068 32.8694 25.1442 32.1414L21.8682 27.0455C18.2282 27.0455 16.2869 24.9828 16.8936 21.5855C15.3944 21.5855 16.819 32.3203 20.3489 38H30C34.4183 38 38 34.4183 38 30V8C38 3.58172 34.4183 0 30 0H8ZM23.8445 20.8684L23.833 20.8766L23.8444 20.8686C24.4956 20.4041 24.5555 19.3713 23.9783 18.5618C23.401 17.7525 22.4053 17.4728 21.754 17.9371L23.8445 20.8684ZM32.3617 14.7901C32.9131 14.7293 33.1383 15.4779 32.645 15.7317L31.5785 16.2806L30.9528 14.9453L32.3617 14.7901ZM30.1745 15.031L28.4543 15.2206L29.4614 17.3701L30.919 16.62L30.1745 15.031ZM30 8.6893C30.7154 8.32173 31.0278 8.03834 31.356 7.3333C31.6312 8.06556 31.948 8.34654 32.712 8.6893C31.9786 9.03839 31.6544 9.31112 31.356 10.0453C31.0113 9.25076 30.6907 8.98782 30 8.6893ZM33.5664 10.4337C33.3431 10.9132 33.1306 11.106 32.644 11.356C33.1138 11.5591 33.3319 11.7379 33.5664 12.2783C33.7693 11.779 33.9898 11.5934 34.4887 11.356C33.969 11.1229 33.7535 10.9317 33.5664 10.4337Z" fill="white"/>
<path d="M150.854 32.1322H138.808C138.711 32.1322 138.662 32.0709 138.662 31.9482L138.698 6.07017C138.698 5.97208 138.747 5.92303 138.844 5.92303H150.818C150.915 5.92303 150.964 5.98434 150.964 6.10696V10.3188C150.964 10.4169 150.915 10.466 150.818 10.466H143.175V16.3515H150.818C150.915 16.3515 150.964 16.4006 150.964 16.4986L151 20.7657C151 20.8638 150.951 20.9128 150.854 20.9128H143.175V27.4973H150.854C150.951 27.4973 151 27.5586 151 27.6812V31.985C151 32.0831 150.951 32.1322 150.854 32.1322Z" fill="white"/>
<path d="M136.042 32.1322H123.995C123.898 32.1322 123.849 32.0709 123.849 31.9482L123.886 6.10696C123.886 5.98434 123.946 5.92303 124.068 5.92303H128.217C128.338 5.92303 128.399 5.98434 128.399 6.10696L128.362 27.4973H136.042C136.163 27.4973 136.224 27.5586 136.224 27.6812V31.9482C136.224 32.0709 136.163 32.1322 136.042 32.1322Z" fill="white"/>
<path d="M113.822 32.5C112.476 32.5 111.244 32.1567 110.128 31.47C109.024 30.7834 108.145 29.8638 107.49 28.7112C106.847 27.5463 106.525 26.2527 106.525 24.8304L106.562 13.0777C106.562 11.6798 106.877 10.4169 107.508 9.28883C108.139 8.1485 109.006 7.23501 110.11 6.54837C111.226 5.84946 112.464 5.5 113.822 5.5C115.205 5.5 116.437 5.83719 117.516 6.51158C118.608 7.18597 119.476 8.09946 120.119 9.25204C120.774 10.3924 121.101 11.6676 121.101 13.0777V14.8065C121.101 14.9046 121.053 14.9537 120.956 14.9537H116.77C116.673 14.9537 116.625 14.9046 116.625 14.8065V13.0777C116.625 12.2439 116.358 11.5266 115.824 10.9257C115.29 10.3249 114.623 10.0245 113.822 10.0245C112.937 10.0245 112.257 10.3311 111.784 10.9441C111.311 11.5572 111.075 12.2684 111.075 13.0777V24.8304C111.075 25.75 111.341 26.5041 111.875 27.0926C112.409 27.6689 113.058 27.9571 113.822 27.9571C114.623 27.9571 115.29 27.6383 115.824 27.0007C116.358 26.3508 116.625 25.6274 116.625 24.8304V23.0831C116.625 22.985 116.673 22.936 116.77 22.936H120.992C121.089 22.936 121.138 22.985 121.138 23.0831V24.8304C121.138 26.2405 120.81 27.5279 120.155 28.6928C119.488 29.8454 118.608 30.7711 117.516 31.47C116.425 32.1567 115.193 32.5 113.822 32.5Z" fill="white"/>
<path d="M89.8016 31.9482L94.4237 6.07017C94.448 5.97208 94.5087 5.92303 94.6057 5.92303H100.01C100.107 5.92303 100.168 5.97208 100.192 6.07017L104.633 31.9482C104.645 32.0709 104.596 32.1322 104.487 32.1322H100.356C100.235 32.1322 100.168 32.0709 100.156 31.9482L99.7556 29.1894H94.6785L94.2782 31.9482C94.266 32.0709 94.2054 32.1322 94.0962 32.1322H89.9471C89.8501 32.1322 89.8016 32.0709 89.8016 31.9482ZM97.4809 14.5858L97.2626 13.188L97.0988 14.5858L95.4246 25.1615H99.0095L97.4809 14.5858Z" fill="white"/>
<path d="M78.2097 32.1322H73.9879C73.8908 32.1322 73.8423 32.0709 73.8423 31.9482L73.9151 6.07017C73.9151 5.97208 73.9636 5.92303 74.0607 5.92303H81.5945C82.9411 5.92303 84.1785 6.2541 85.3068 6.91622C86.435 7.57835 87.3328 8.46731 88 9.58312C88.6794 10.6989 89.0191 11.9619 89.0191 13.3719C89.0191 14.2916 88.8795 15.1254 88.6005 15.8733C88.3215 16.6213 87.9939 17.2527 87.6178 17.7677C87.2539 18.2827 86.9203 18.6628 86.617 18.908C87.9636 20.4162 88.6369 22.188 88.6369 24.2234L88.6733 31.9482C88.6733 32.0709 88.6126 32.1322 88.4913 32.1322H84.2695C84.1724 32.1322 84.1239 32.0954 84.1239 32.0218V24.2234C84.1239 23.3161 83.8085 22.5313 83.1776 21.8692C82.5468 21.2071 81.7704 20.876 80.8484 20.876H78.3917L78.3553 31.9482C78.3553 32.0709 78.3068 32.1322 78.2097 32.1322ZM81.5945 10.4292H78.3917V16.3515H81.5945C82.3588 16.3515 83.0381 16.0634 83.6326 15.4871C84.2392 14.9108 84.5425 14.2057 84.5425 13.3719C84.5425 12.5749 84.2513 11.8883 83.669 11.312C83.0867 10.7234 82.3951 10.4292 81.5945 10.4292Z" fill="white"/>
<path d="M70.4211 32.1322H66.1993C66.078 32.1322 66.0173 32.0709 66.0173 31.9482L66.0537 6.07017C66.0537 5.97208 66.1023 5.92303 66.1993 5.92303H70.3848C70.4818 5.92303 70.5303 5.97208 70.5303 6.07017L70.5667 31.9482C70.5667 32.0709 70.5182 32.1322 70.4211 32.1322Z" fill="white"/>
<path d="M50.3674 32.1322H46.1456C46.0485 32.1322 46 32.0709 46 31.9483L46.0728 6.07019C46.0728 5.9721 46.1213 5.92305 46.2184 5.92305H50.7678C50.8648 5.92305 50.9497 5.9721 51.0225 6.07019L54.4255 11.0361L57.8102 6.07019C57.883 5.9721 57.974 5.92305 58.0832 5.92305H62.6508C62.76 5.92305 62.8146 5.9721 62.8146 6.07019L62.8874 31.9483C62.8874 32.0709 62.8388 32.1322 62.7418 32.1322H58.5199C58.4229 32.1322 58.3744 32.0709 58.3744 31.9483L58.338 12.7282L54.4255 18.4666L50.5494 12.7282L50.513 31.9483C50.513 32.0709 50.4645 32.1322 50.3674 32.1322Z" fill="white"/>
</svg>
